<svg width="78" height="78" viewBox="0 0 78 78" fill="none" xmlns="http://www.w3.org/2000/svg">
<g filter="url(#filter0_d_2_174)">
<path fill-rule="evenodd" clip-rule="evenodd" d="M31.3452 24.5521L28.3061 27.3064C30.4592 29.9887 33.374 32.2086 36.9493 32.9195V37.0803H41.0509V33.2027C44.956 32.9357 48.9176 29.9901 49.582 26.0753C50.5092 20.7602 45.8484 17.5786 41.0509 16.104V8.04849C43.1232 8.26314 45.4574 9.92359 47.1428 11.3682L49.6873 8.15117C47.3294 5.96217 43.4961 3.9766 41.0508 3.91262V0.00738144H36.9492V4.14326C33.7258 4.83369 31.0752 7.39471 30.6444 10.5361C30.2523 15.0449 32.3589 17.2828 36.9492 18.8773V28.6895C33.3536 27.722 31.3452 24.5521 31.3452 24.5521ZM34.7013 11.1398C34.8798 9.93986 35.7063 8.96014 36.9492 8.43896V14.4279C34.6511 13.6765 34.533 12.2695 34.7013 11.1398ZM41.0508 29.0772C43.6106 28.7075 45.5442 27.0118 45.5442 25.3542C45.5442 22.0086 41.5377 20.6588 41.0876 20.5072C41.0692 20.501 41.0568 20.4968 41.0508 20.4945V29.0772Z" fill="white"/>
<path fill-rule="evenodd" clip-rule="evenodd" d="M66.9394 56.477V48.9702L67.8468 49.5146L69.9572 45.9975L55.4746 37.3081L40.992 45.9977L43.1024 49.5147L44.0098 48.9703V56.4771H33.9904V48.9703L34.8978 49.5147L37.0081 45.9977L22.5254 37.3081L8.04277 45.9977L10.1532 49.5147L11.0606 48.9703V56.4771H4V60.5787H74V56.4771H66.9394V56.477ZM24.5762 56.477V51.4672H20.4746V56.477H15.1621V46.5093L22.5254 42.0912L29.8887 46.5093V56.477H24.5762ZM57.5254 51.4672V56.477H62.8379V46.5093L55.4746 42.0912L48.1113 46.5093V56.477H53.4238V51.4672H57.5254Z" fill="white"/>
<path d="M4 65.8911H74V69.9926H4V65.8911Z" fill="white"/>
</g>
<defs>
<filter id="filter0_d_2_174" x="0" y="0.00738144" width="78" height="77.9852" filterUnits="userSpaceOnUse" color-interpolation-filters="sRGB">
<feFlood flood-opacity="0" result="BackgroundImageFix"/>
<feColorMatrix in="SourceAlpha" type="matrix" values="0 0 0 0 0 0 0 0 0 0 0 0 0 0 0 0 0 0 127 0" result="hardAlpha"/>
<feOffset dy="4"/>
<feGaussianBlur stdDeviation="2"/>
<feComposite in2="hardAlpha" operator="out"/>
<feColorMatrix type="matrix" values="0 0 0 0 0 0 0 0 0 0 0 0 0 0 0 0 0 0 0.25 0"/>
<feBlend mode="normal" in2="BackgroundImageFix" result="effect1_dropShadow_2_174"/>
<feBlend mode="normal" in="SourceGraphic" in2="effect1_dropShadow_2_174" result="shape"/>
</filter>
</defs>
</svg>
